<!-- Created with Inkscape (http://www.inkscape.org/) -->
<svg id="svg2" xmlns:rdf="http://www.w3.org/1999/02/22-rdf-syntax-ns#" xmlns="http://www.w3.org/2000/svg" height="1052.4" width="744.09" version="1.1" xmlns:cc="http://creativecommons.org/ns#" xmlns:dc="http://purl.org/dc/elements/1.1/">
 <metadata id="metadata7">
  <rdf:RDF>
   <cc:Work rdf:about="">
    <dc:format>image/svg+xml</dc:format>
    <dc:type rdf:resource="http://purl.org/dc/dcmitype/StillImage"/>
    <dc:title/>
   </cc:Work>
  </rdf:RDF>
 </metadata>
 <g id="layer1">
  <path id="head" stroke-linejoin="miter" d="m357.1,159.89c-15.345,0-28.545,12.85-34.685,31.382-113.4,16.707-204.17,118.71-224.11,249.71-19.452,2.3385-34.788,27.427-34.788,58.015,0,31.236,15.99,56.617,36.027,58.015,24.281,139.79,129.51,244.96,255.69,244.96,128.33,0,234.95-108.84,256.84-252.19,18.343-3.9595,32.517-28.13,32.517-57.499,0-29.911-14.714-54.648-33.55-57.912-21.7-126.28-109.44-224.41-219.06-242.59-6.06-18.82-19.4-31.9-34.89-31.9z" fill-rule="evenodd" stroke="#000" stroke-linecap="butt" stroke-width="2.20142317px" fill="#e9c6af"/>
  <path id="T8" d="m322.24,346.01a7.3236,7.3236,0,1,1,-14.647,0,7.3236,7.3236,0,1,1,14.647,0z" transform="matrix(3.3033583,0,0,3.3033583,-436.25199,-651.90853)" fill="#0F0"/>
  <path id="FC6" d="m322.24,346.01a7.3236,7.3236,0,1,1,-14.647,0,7.3236,7.3236,0,1,1,14.647,0z" transform="matrix(3.3033583,0,0,3.3033583,-523.84555,-724.48599)" fill="#0F0"/>
  <path id="F4" d="m322.24,346.01a7.3236,7.3236,0,1,1,-14.647,0,7.3236,7.3236,0,1,1,14.647,0z" transform="matrix(3.3033583,0,0,3.3033583,-608.27812,-785.03724)" fill="#0F0"/>
  <path id="AF4" d="m322.24,346.01a7.3236,7.3236,0,1,1,-14.647,0,7.3236,7.3236,0,1,1,14.647,0z" transform="matrix(3.3033583,0,0,3.3033583,-568.37161,-877.54623)" fill="#0F0"/>
  <path id="F8" d="m322.24,346.01a7.3236,7.3236,0,1,1,-14.647,0,7.3236,7.3236,0,1,1,14.647,0z" transform="matrix(3.3033583,0,0,3.3033583,-497.37749,-816.34144)" fill="#0F0"/>
  <path id="AF3" d="m322.24,346.01a7.3236,7.3236,0,1,1,-14.647,0,7.3236,7.3236,0,1,1,14.647,0z" transform="matrix(3.3033583,0,0,3.3033583,-787.58507,-877.32488)" fill="#0F0"/>
  <path id="F3" d="m322.24,346.01a7.3236,7.3236,0,1,1,-14.647,0,7.3236,7.3236,0,1,1,14.647,0z" transform="matrix(3.3033583,0,0,3.3033583,-759.93092,-783.71586)" fill="#0F0"/>
  <path id="FC5" d="m322.24,346.01a7.3236,7.3236,0,1,1,-14.647,0,7.3236,7.3236,0,1,1,14.647,0z" transform="matrix(3.3033583,0,0,3.3033583,-843.35332,-725.32022)" fill="#0F0"/>
  <path id="T7" d="m322.24,346.01a7.3236,7.3236,0,1,1,-14.647,0,7.3236,7.3236,0,1,1,14.647,0z" transform="matrix(3.3033583,0,0,3.3033583,-938.45485,-648.5716)" fill="#0F0"/>
  <path id="F7" d="m322.24,346.01a7.3236,7.3236,0,1,1,-14.647,0,7.3236,7.3236,0,1,1,14.647,0z" transform="matrix(3.3033583,0,0,3.3033583,-871.31391,-818.00992)" fill="#0F0"/>
  <path id="REFL" d="m322.24,346.01a7.3236,7.3236,0,1,1,-14.647,0,7.3236,7.3236,0,1,1,14.647,0z" transform="matrix(3.3033583,0,0,3.3033583,-905.92011,-575.99412)" fill="#0F0"/>
  <path id="P7" d="m322.24,346.01a7.3236,7.3236,0,1,1,-14.647,0,7.3236,7.3236,0,1,1,14.647,0z" transform="matrix(3.3033583,0,0,3.3033583,-865.87737,-487.56639)" fill="#0F0"/>
  <path id="O1" d="m322.24,346.01a7.3236,7.3236,0,1,1,-14.647,0,7.3236,7.3236,0,1,1,14.647,0z" transform="matrix(3.3033583,0,0,3.3033583,-771.61007,-388.29373)" fill="#0F0"/>
  <path id="O2" d="m322.24,346.01a7.3236,7.3236,0,1,1,-14.647,0,7.3236,7.3236,0,1,1,14.647,0z" transform="matrix(3.3033583,0,0,3.3033583,-615.6102,-384.12258)" fill="#0F0"/>
  <path id="P8" d="m322.24,346.01a7.3236,7.3236,0,1,1,-14.647,0,7.3236,7.3236,0,1,1,14.647,0z" transform="matrix(3.3033583,0,0,3.3033583,-516.33754,-465.87653)" fill="#0F0"/>
  <path id="REFR" d="m322.24,346.01a7.3236,7.3236,0,1,1,-14.647,0,7.3236,7.3236,0,1,1,14.647,0z" transform="matrix(3.3033583,0,0,3.3033583,-477.129,-570.98877)" fill="#0F0"/>
  <text id="text3309" style="letter-spacing:0px;word-spacing:0px;" font-weight="normal" xml:space="preserve" font-size="40px" font-style="normal" y="273.53458" x="282.84271" font-family="Sans" line-height="191.0000205%" fill="#000000"><tspan id="tspan3313" font-weight="normal" font-size="22px" font-style="normal" font-stretch="normal" font-variant="normal" y="273.53458" x="282.84271" font-family="Droid Sans Mono">AF3</tspan></text>
  <text id="text3309-6" style="letter-spacing:0px;word-spacing:0px;" font-weight="normal" xml:space="preserve" font-size="40px" font-style="normal" y="276.36859" x="401.0379" font-family="Sans" line-height="191.0000205%" fill="#000000"><tspan id="tspan3313-8" font-weight="normal" font-size="22px" font-style="normal" font-stretch="normal" font-variant="normal" y="276.36859" x="401.0379" font-family="Droid Sans Mono">AF4</tspan></text>
  <text id="text3309-4" style="letter-spacing:0px;word-spacing:0px;" font-weight="normal" xml:space="preserve" font-size="40px" font-style="normal" y="399.60721" x="381.84503" font-family="Sans" line-height="191.0000205%" fill="#000000"><tspan id="tspan3313-9" font-weight="normal" font-size="22px" font-style="normal" font-stretch="normal" font-variant="normal" y="399.60721" x="381.84503" font-family="Droid Sans Mono">F4</tspan></text>
  <text id="text3309-2" style="letter-spacing:0px;word-spacing:0px;" font-weight="normal" xml:space="preserve" font-size="40px" font-style="normal" y="401.6275" x="298.00235" font-family="Sans" line-height="191.0000205%" fill="#000000"><tspan id="tspan3313-4" font-weight="normal" font-size="22px" font-style="normal" font-stretch="normal" font-variant="normal" y="401.6275" x="298.00235" font-family="Droid Sans Mono">F3</tspan></text>
  <text id="text3309-1" style="letter-spacing:0px;word-spacing:0px;" font-weight="normal" xml:space="preserve" font-size="40px" font-style="normal" y="334.95743" x="488.92117" font-family="Sans" line-height="191.0000205%" fill="#000000"><tspan id="tspan3313-84" font-weight="normal" font-size="22px" font-style="normal" font-stretch="normal" font-variant="normal" y="334.95743" x="488.92117" font-family="Droid Sans Mono">F8</tspan></text>
  <text id="text3309-5" style="letter-spacing:0px;word-spacing:0px;" font-weight="normal" xml:space="preserve" font-size="40px" font-style="normal" y="458.19604" x="457.60645" font-family="Sans" line-height="191.0000205%" fill="#000000"><tspan id="tspan3313-5" font-weight="normal" font-size="22px" font-style="normal" font-stretch="normal" font-variant="normal" y="458.19604" x="457.60645" font-family="Droid Sans Mono">FC6</tspan></text>
  <text id="text3309-0" style="letter-spacing:0px;word-spacing:0px;" font-weight="normal" xml:space="preserve" font-size="40px" font-style="normal" y="499.6123" x="535.38818" font-family="Sans" line-height="191.0000205%" fill="#000000"><tspan id="tspan3313-0" font-weight="normal" font-size="22px" font-style="normal" font-stretch="normal" font-variant="normal" y="499.6123" x="535.38818" font-family="Droid Sans Mono">T8</tspan></text>
  <text id="text3309-7" style="letter-spacing:0px;word-spacing:0px;" font-weight="normal" xml:space="preserve" font-size="40px" font-style="normal" y="578.40417" x="480.83997" font-family="Sans" line-height="191.0000205%" fill="#000000"><tspan id="tspan3313-3" font-weight="normal" font-size="22px" font-style="normal" font-stretch="normal" font-variant="normal" y="578.40417" x="480.83997" font-family="Droid Sans Mono">REFR</tspan></text>
  <text id="text3309-8" style="letter-spacing:0px;word-spacing:0px;" font-weight="normal" xml:space="preserve" font-size="40px" font-style="normal" y="646.08435" x="505.08365" font-family="Sans" line-height="191.0000205%" fill="#000000"><tspan id="tspan3313-08" font-weight="normal" font-size="22px" font-style="normal" font-stretch="normal" font-variant="normal" y="646.08435" x="505.08365" font-family="Droid Sans Mono">P8</tspan></text>
  <text id="text3309-9" style="letter-spacing:0px;word-spacing:0px;" font-weight="normal" xml:space="preserve" font-size="40px" font-style="normal" y="723.86615" x="405.07852" font-family="Sans" line-height="191.0000205%" fill="#000000"><tspan id="tspan3313-6" font-weight="normal" font-size="22px" font-style="normal" font-stretch="normal" font-variant="normal" y="723.86615" x="405.07852" font-family="Droid Sans Mono">O2</tspan></text>
  <text id="text3309-42" style="letter-spacing:0px;word-spacing:0px;" font-weight="normal" xml:space="preserve" font-size="40px" font-style="normal" y="721.84583" x="253.55563" font-family="Sans" line-height="191.0000205%" fill="#000000"><tspan id="tspan3313-02" font-weight="normal" font-size="22px" font-style="normal" font-stretch="normal" font-variant="normal" y="721.84583" x="253.55563" font-family="Droid Sans Mono">O1</tspan></text>
  <text id="text3309-63" style="letter-spacing:0px;word-spacing:0px;" font-weight="normal" xml:space="preserve" font-size="40px" font-style="normal" y="624.87115" x="154.5607" font-family="Sans" line-height="191.0000205%" fill="#000000"><tspan id="tspan3313-1" font-weight="normal" font-size="22px" font-style="normal" font-stretch="normal" font-variant="normal" y="624.87115" x="154.5607" font-family="Droid Sans Mono">P7</tspan></text>
  <text id="text3309-77" style="letter-spacing:0px;word-spacing:0px;" font-weight="normal" xml:space="preserve" font-size="40px" font-style="normal" y="575.37372" x="163.65205" font-family="Sans" line-height="191.0000205%" fill="#000000"><tspan id="tspan3313-05" font-weight="normal" font-size="22px" font-style="normal" font-stretch="normal" font-variant="normal" y="575.37372" x="163.65205" font-family="Droid Sans Mono">REFL</tspan></text>
  <text id="text3309-82" style="letter-spacing:0px;word-spacing:0px;" font-weight="normal" xml:space="preserve" font-size="40px" font-style="normal" y="500.62244" x="131.32718" font-family="Sans" line-height="191.0000205%" fill="#000000"><tspan id="tspan3313-93" font-weight="normal" font-size="22px" font-style="normal" font-stretch="normal" font-variant="normal" y="500.62244" x="131.32718" font-family="Droid Sans Mono">T7</tspan></text>
  <text id="text3309-17" style="letter-spacing:0px;word-spacing:0px;" font-weight="normal" xml:space="preserve" font-size="40px" font-style="normal" y="458.19604" x="217.19014" font-family="Sans" line-height="191.0000205%" fill="#000000"><tspan id="tspan3313-2" font-weight="normal" font-size="22px" font-style="normal" font-stretch="normal" font-variant="normal" y="458.19604" x="217.19014" font-family="Droid Sans Mono">FC5</tspan></text>
  <text id="text3309-825" style="letter-spacing:0px;word-spacing:0px;" font-weight="normal" xml:space="preserve" font-size="40px" font-style="normal" y="334.95743" x="197.99725" font-family="Sans" line-height="191.0000205%" fill="#000000"><tspan id="tspan3313-88" font-weight="normal" font-size="22px" font-style="normal" font-stretch="normal" font-variant="normal" y="334.95743" x="197.99725" font-family="Droid Sans Mono">F7</tspan></text>
 </g>
</svg>
