<?xml version="1.0" encoding="UTF-8" standalone="no"?>
<!-- Created with Inkscape (http://www.inkscape.org/) -->

<svg
   xmlns:dc="http://purl.org/dc/elements/1.1/"
   xmlns:cc="http://creativecommons.org/ns#"
   xmlns:rdf="http://www.w3.org/1999/02/22-rdf-syntax-ns#"
   xmlns:svg="http://www.w3.org/2000/svg"
   xmlns="http://www.w3.org/2000/svg"
   xmlns:sodipodi="http://sodipodi.sourceforge.net/DTD/sodipodi-0.dtd"
   xmlns:inkscape="http://www.inkscape.org/namespaces/inkscape"
   width="744.09448819"
   height="1052.3622047"
   id="svg2"
   version="1.1"
   inkscape:version="0.48.3.1 r9886"
   sodipodi:docname="epochead.svg">
  <defs
     id="defs4" />
  <sodipodi:namedview
     id="base"
     pagecolor="#ffffff"
     bordercolor="#666666"
     borderopacity="1.0"
     inkscape:pageopacity="0.0"
     inkscape:pageshadow="2"
     inkscape:zoom="0.98994949"
     inkscape:cx="290.19628"
     inkscape:cy="601.41927"
     inkscape:document-units="px"
     inkscape:current-layer="layer1"
     showgrid="false"
     inkscape:window-width="956"
     inkscape:window-height="1138"
     inkscape:window-x="0"
     inkscape:window-y="0"
     inkscape:window-maximized="0" />
  <metadata
     id="metadata7">
    <rdf:RDF>
      <cc:Work
         rdf:about="">
        <dc:format>image/svg+xml</dc:format>
        <dc:type
           rdf:resource="http://purl.org/dc/dcmitype/StillImage" />
        <dc:title />
      </cc:Work>
    </rdf:RDF>
  </metadata>
  <g
     inkscape:label="Layer 1"
     inkscape:groupmode="layer"
     id="layer1">
    <path
       style="fill:#e9c6af;fill-rule:evenodd;stroke:#000000;stroke-width:2.20142317px;stroke-linecap:butt;stroke-linejoin:miter;stroke-opacity:1"
       d="m 357.09564,159.89215 c -15.34453,0 -28.54547,12.84999 -34.68526,31.3819 -113.40385,16.70694 -204.16571,118.7081 -224.112211,249.71324 -19.451889,2.33848 -34.788487,27.4266 -34.788487,58.01523 0,31.2355 15.990296,56.61712 36.027247,58.01522 C 123.83314,696.80851 229.05709,801.9824 355.2375,801.9824 c 128.32995,0 234.94958,-108.83989 256.83611,-252.19075 18.34253,-3.95947 32.51743,-28.12981 32.51743,-57.49908 0,-29.91085 -14.71362,-54.64831 -33.54973,-57.91199 C 589.35196,308.09742 501.61016,209.96654 391.98737,191.7902 385.9262,172.97239 372.58651,159.89215 357.09564,159.89215 z"
       id="head"
       inkscape:connector-curvature="0" />
    <path
       sodipodi:type="arc"
       style="fill:#00ff00"
       id="T8"
       sodipodi:cx="314.91507"
       sodipodi:cy="346.013"
       sodipodi:rx="7.323606"
       sodipodi:ry="7.323606"
       d="m 322.23868,346.013 a 7.323606,7.323606 0 1 1 -14.64722,0 7.323606,7.323606 0 1 1 14.64722,0 z"
       transform="matrix(3.3033583,0,0,3.3033583,-436.25199,-651.90853)" />
    <path
       sodipodi:type="arc"
       style="fill:#00ff00"
       id="FC6"
       sodipodi:cx="314.91507"
       sodipodi:cy="346.013"
       sodipodi:rx="7.323606"
       sodipodi:ry="7.323606"
       d="m 322.23868,346.013 a 7.323606,7.323606 0 1 1 -14.64722,0 7.323606,7.323606 0 1 1 14.64722,0 z"
       transform="matrix(3.3033583,0,0,3.3033583,-523.84555,-724.48599)" />
    <path
       sodipodi:type="arc"
       style="fill:#00ff00"
       id="F4"
       sodipodi:cx="314.91507"
       sodipodi:cy="346.013"
       sodipodi:rx="7.323606"
       sodipodi:ry="7.323606"
       d="m 322.23868,346.013 a 7.323606,7.323606 0 1 1 -14.64722,0 7.323606,7.323606 0 1 1 14.64722,0 z"
       transform="matrix(3.3033583,0,0,3.3033583,-608.27812,-785.03724)" />
    <path
       sodipodi:type="arc"
       style="fill:#00ff00"
       id="AF4"
       sodipodi:cx="314.91507"
       sodipodi:cy="346.013"
       sodipodi:rx="7.323606"
       sodipodi:ry="7.323606"
       d="m 322.23868,346.013 a 7.323606,7.323606 0 1 1 -14.64722,0 7.323606,7.323606 0 1 1 14.64722,0 z"
       transform="matrix(3.3033583,0,0,3.3033583,-568.37161,-877.54623)" />
    <path
       sodipodi:type="arc"
       style="fill:#00ff00"
       id="F8"
       sodipodi:cx="314.91507"
       sodipodi:cy="346.013"
       sodipodi:rx="7.323606"
       sodipodi:ry="7.323606"
       d="m 322.23868,346.013 a 7.323606,7.323606 0 1 1 -14.64722,0 7.323606,7.323606 0 1 1 14.64722,0 z"
       transform="matrix(3.3033583,0,0,3.3033583,-497.37749,-816.34144)" />
    <path
       sodipodi:type="arc"
       style="fill:#00ff00"
       id="AF3"
       sodipodi:cx="314.91507"
       sodipodi:cy="346.013"
       sodipodi:rx="7.323606"
       sodipodi:ry="7.323606"
       d="m 322.23868,346.013 a 7.323606,7.323606 0 1 1 -14.64722,0 7.323606,7.323606 0 1 1 14.64722,0 z"
       transform="matrix(3.3033583,0,0,3.3033583,-787.58507,-877.32488)" />
    <path
       sodipodi:type="arc"
       style="fill:#00ff00"
       id="F3"
       sodipodi:cx="314.91507"
       sodipodi:cy="346.013"
       sodipodi:rx="7.323606"
       sodipodi:ry="7.323606"
       d="m 322.23868,346.013 a 7.323606,7.323606 0 1 1 -14.64722,0 7.323606,7.323606 0 1 1 14.64722,0 z"
       transform="matrix(3.3033583,0,0,3.3033583,-759.93092,-783.71586)" />
    <path
       sodipodi:type="arc"
       style="fill:#00ff00"
       id="FC5"
       sodipodi:cx="314.91507"
       sodipodi:cy="346.013"
       sodipodi:rx="7.323606"
       sodipodi:ry="7.323606"
       d="m 322.23868,346.013 a 7.323606,7.323606 0 1 1 -14.64722,0 7.323606,7.323606 0 1 1 14.64722,0 z"
       transform="matrix(3.3033583,0,0,3.3033583,-843.35332,-725.32022)" />
    <path
       sodipodi:type="arc"
       style="fill:#00ff00"
       id="T7"
       sodipodi:cx="314.91507"
       sodipodi:cy="346.013"
       sodipodi:rx="7.323606"
       sodipodi:ry="7.323606"
       d="m 322.23868,346.013 a 7.323606,7.323606 0 1 1 -14.64722,0 7.323606,7.323606 0 1 1 14.64722,0 z"
       transform="matrix(3.3033583,0,0,3.3033583,-938.45485,-648.5716)" />
    <path
       sodipodi:type="arc"
       style="fill:#00ff00"
       id="F7"
       sodipodi:cx="314.91507"
       sodipodi:cy="346.013"
       sodipodi:rx="7.323606"
       sodipodi:ry="7.323606"
       d="m 322.23868,346.013 a 7.323606,7.323606 0 1 1 -14.64722,0 7.323606,7.323606 0 1 1 14.64722,0 z"
       transform="matrix(3.3033583,0,0,3.3033583,-871.31391,-818.00992)" />
    <path
       sodipodi:type="arc"
       style="fill:#00ff00"
       id="REFL"
       sodipodi:cx="314.91507"
       sodipodi:cy="346.013"
       sodipodi:rx="7.323606"
       sodipodi:ry="7.323606"
       d="m 322.23868,346.013 a 7.323606,7.323606 0 1 1 -14.64722,0 7.323606,7.323606 0 1 1 14.64722,0 z"
       transform="matrix(3.3033583,0,0,3.3033583,-905.92011,-575.99412)" />
    <path
       sodipodi:type="arc"
       style="fill:#00ff00"
       id="P7"
       sodipodi:cx="314.91507"
       sodipodi:cy="346.013"
       sodipodi:rx="7.323606"
       sodipodi:ry="7.323606"
       d="m 322.23868,346.013 a 7.323606,7.323606 0 1 1 -14.64722,0 7.323606,7.323606 0 1 1 14.64722,0 z"
       transform="matrix(3.3033583,0,0,3.3033583,-865.87737,-487.56639)" />
    <path
       sodipodi:type="arc"
       style="fill:#00ff00"
       id="O1"
       sodipodi:cx="314.91507"
       sodipodi:cy="346.013"
       sodipodi:rx="7.323606"
       sodipodi:ry="7.323606"
       d="m 322.23868,346.013 a 7.323606,7.323606 0 1 1 -14.64722,0 7.323606,7.323606 0 1 1 14.64722,0 z"
       transform="matrix(3.3033583,0,0,3.3033583,-771.61007,-388.29373)" />
    <path
       sodipodi:type="arc"
       style="fill:#00ff00"
       id="O2"
       sodipodi:cx="314.91507"
       sodipodi:cy="346.013"
       sodipodi:rx="7.323606"
       sodipodi:ry="7.323606"
       d="m 322.23868,346.013 a 7.323606,7.323606 0 1 1 -14.64722,0 7.323606,7.323606 0 1 1 14.64722,0 z"
       transform="matrix(3.3033583,0,0,3.3033583,-615.6102,-384.12258)" />
    <path
       sodipodi:type="arc"
       style="fill:#00ff00"
       id="P8"
       sodipodi:cx="314.91507"
       sodipodi:cy="346.013"
       sodipodi:rx="7.323606"
       sodipodi:ry="7.323606"
       d="m 322.23868,346.013 a 7.323606,7.323606 0 1 1 -14.64722,0 7.323606,7.323606 0 1 1 14.64722,0 z"
       transform="matrix(3.3033583,0,0,3.3033583,-516.33754,-465.87653)"
       inkscape:label="#P8" />
    <path
       sodipodi:type="arc"
       style="fill:#00ff00"
       id="REFR"
       sodipodi:cx="314.91507"
       sodipodi:cy="346.013"
       sodipodi:rx="7.323606"
       sodipodi:ry="7.323606"
       d="m 322.23868,346.013 a 7.323606,7.323606 0 1 1 -14.64722,0 7.323606,7.323606 0 1 1 14.64722,0 z"
       transform="matrix(3.3033583,0,0,3.3033583,-477.129,-570.98877)" />
    <text
       xml:space="preserve"
       style="font-size:40px;font-style:normal;font-weight:normal;line-height:191.0000205%;letter-spacing:0px;word-spacing:0px;fill:#000000;fill-opacity:1;stroke:none;font-family:Sans"
       x="282.84271"
       y="273.53458"
       id="text3309"
       sodipodi:linespacing="191.00002%"><tspan
         sodipodi:role="line"
         x="282.84271"
         y="273.53458"
         id="tspan3313"
         style="font-size:22px;font-style:normal;font-variant:normal;font-weight:normal;font-stretch:normal;font-family:Droid Sans Mono;-inkscape-font-specification:Droid Sans Mono">AF3</tspan></text>
    <text
       xml:space="preserve"
       style="font-size:40px;font-style:normal;font-weight:normal;line-height:191.0000205%;letter-spacing:0px;word-spacing:0px;fill:#000000;fill-opacity:1;stroke:none;font-family:Sans"
       x="401.0379"
       y="276.36859"
       id="text3309-6"
       sodipodi:linespacing="191.00002%"><tspan
         sodipodi:role="line"
         x="401.0379"
         y="276.36859"
         id="tspan3313-8"
         style="font-size:22px;font-style:normal;font-variant:normal;font-weight:normal;font-stretch:normal;font-family:Droid Sans Mono;-inkscape-font-specification:Droid Sans Mono">AF4</tspan></text>
    <text
       xml:space="preserve"
       style="font-size:40px;font-style:normal;font-weight:normal;line-height:191.0000205%;letter-spacing:0px;word-spacing:0px;fill:#000000;fill-opacity:1;stroke:none;font-family:Sans"
       x="381.84503"
       y="399.60721"
       id="text3309-4"
       sodipodi:linespacing="191.00002%"><tspan
         sodipodi:role="line"
         x="381.84503"
         y="399.60721"
         id="tspan3313-9"
         style="font-size:22px;font-style:normal;font-variant:normal;font-weight:normal;font-stretch:normal;font-family:Droid Sans Mono;-inkscape-font-specification:Droid Sans Mono">F4</tspan></text>
    <text
       xml:space="preserve"
       style="font-size:40px;font-style:normal;font-weight:normal;line-height:191.0000205%;letter-spacing:0px;word-spacing:0px;fill:#000000;fill-opacity:1;stroke:none;font-family:Sans"
       x="298.00235"
       y="401.6275"
       id="text3309-2"
       sodipodi:linespacing="191.00002%"><tspan
         sodipodi:role="line"
         x="298.00235"
         y="401.6275"
         id="tspan3313-4"
         style="font-size:22px;font-style:normal;font-variant:normal;font-weight:normal;font-stretch:normal;font-family:Droid Sans Mono;-inkscape-font-specification:Droid Sans Mono">F3</tspan></text>
    <text
       xml:space="preserve"
       style="font-size:40px;font-style:normal;font-weight:normal;line-height:191.0000205%;letter-spacing:0px;word-spacing:0px;fill:#000000;fill-opacity:1;stroke:none;font-family:Sans"
       x="488.92117"
       y="334.95743"
       id="text3309-1"
       sodipodi:linespacing="191.00002%"><tspan
         sodipodi:role="line"
         x="488.92117"
         y="334.95743"
         id="tspan3313-84"
         style="font-size:22px;font-style:normal;font-variant:normal;font-weight:normal;font-stretch:normal;font-family:Droid Sans Mono;-inkscape-font-specification:Droid Sans Mono">F8</tspan></text>
    <text
       xml:space="preserve"
       style="font-size:40px;font-style:normal;font-weight:normal;line-height:191.0000205%;letter-spacing:0px;word-spacing:0px;fill:#000000;fill-opacity:1;stroke:none;font-family:Sans"
       x="457.60645"
       y="458.19604"
       id="text3309-5"
       sodipodi:linespacing="191.00002%"><tspan
         sodipodi:role="line"
         x="457.60645"
         y="458.19604"
         id="tspan3313-5"
         style="font-size:22px;font-style:normal;font-variant:normal;font-weight:normal;font-stretch:normal;font-family:Droid Sans Mono;-inkscape-font-specification:Droid Sans Mono">FC6</tspan></text>
    <text
       xml:space="preserve"
       style="font-size:40px;font-style:normal;font-weight:normal;line-height:191.0000205%;letter-spacing:0px;word-spacing:0px;fill:#000000;fill-opacity:1;stroke:none;font-family:Sans"
       x="535.38818"
       y="499.6123"
       id="text3309-0"
       sodipodi:linespacing="191.00002%"><tspan
         sodipodi:role="line"
         x="535.38818"
         y="499.6123"
         id="tspan3313-0"
         style="font-size:22px;font-style:normal;font-variant:normal;font-weight:normal;font-stretch:normal;font-family:Droid Sans Mono;-inkscape-font-specification:Droid Sans Mono">T8</tspan></text>
    <text
       xml:space="preserve"
       style="font-size:40px;font-style:normal;font-weight:normal;line-height:191.0000205%;letter-spacing:0px;word-spacing:0px;fill:#000000;fill-opacity:1;stroke:none;font-family:Sans"
       x="480.83997"
       y="578.40417"
       id="text3309-7"
       sodipodi:linespacing="191.00002%"><tspan
         sodipodi:role="line"
         x="480.83997"
         y="578.40417"
         id="tspan3313-3"
         style="font-size:22px;font-style:normal;font-variant:normal;font-weight:normal;font-stretch:normal;font-family:Droid Sans Mono;-inkscape-font-specification:Droid Sans Mono">REFR</tspan></text>
    <text
       xml:space="preserve"
       style="font-size:40px;font-style:normal;font-weight:normal;line-height:191.0000205%;letter-spacing:0px;word-spacing:0px;fill:#000000;fill-opacity:1;stroke:none;font-family:Sans"
       x="505.08365"
       y="646.08435"
       id="text3309-8"
       sodipodi:linespacing="191.00002%"><tspan
         sodipodi:role="line"
         x="505.08365"
         y="646.08435"
         id="tspan3313-08"
         style="font-size:22px;font-style:normal;font-variant:normal;font-weight:normal;font-stretch:normal;font-family:Droid Sans Mono;-inkscape-font-specification:Droid Sans Mono">P8</tspan></text>
    <text
       xml:space="preserve"
       style="font-size:40px;font-style:normal;font-weight:normal;line-height:191.0000205%;letter-spacing:0px;word-spacing:0px;fill:#000000;fill-opacity:1;stroke:none;font-family:Sans"
       x="405.07852"
       y="723.86615"
       id="text3309-9"
       sodipodi:linespacing="191.00002%"><tspan
         sodipodi:role="line"
         x="405.07852"
         y="723.86615"
         id="tspan3313-6"
         style="font-size:22px;font-style:normal;font-variant:normal;font-weight:normal;font-stretch:normal;font-family:Droid Sans Mono;-inkscape-font-specification:Droid Sans Mono">O2</tspan></text>
    <text
       xml:space="preserve"
       style="font-size:40px;font-style:normal;font-weight:normal;line-height:191.0000205%;letter-spacing:0px;word-spacing:0px;fill:#000000;fill-opacity:1;stroke:none;font-family:Sans"
       x="253.55563"
       y="721.84583"
       id="text3309-42"
       sodipodi:linespacing="191.00002%"><tspan
         sodipodi:role="line"
         x="253.55563"
         y="721.84583"
         id="tspan3313-02"
         style="font-size:22px;font-style:normal;font-variant:normal;font-weight:normal;font-stretch:normal;font-family:Droid Sans Mono;-inkscape-font-specification:Droid Sans Mono">O1</tspan></text>
    <text
       xml:space="preserve"
       style="font-size:40px;font-style:normal;font-weight:normal;line-height:191.0000205%;letter-spacing:0px;word-spacing:0px;fill:#000000;fill-opacity:1;stroke:none;font-family:Sans"
       x="154.5607"
       y="624.87115"
       id="text3309-63"
       sodipodi:linespacing="191.00002%"><tspan
         sodipodi:role="line"
         x="154.5607"
         y="624.87115"
         id="tspan3313-1"
         style="font-size:22px;font-style:normal;font-variant:normal;font-weight:normal;font-stretch:normal;font-family:Droid Sans Mono;-inkscape-font-specification:Droid Sans Mono">P7</tspan></text>
    <text
       xml:space="preserve"
       style="font-size:40px;font-style:normal;font-weight:normal;line-height:191.0000205%;letter-spacing:0px;word-spacing:0px;fill:#000000;fill-opacity:1;stroke:none;font-family:Sans"
       x="163.65205"
       y="575.37372"
       id="text3309-77"
       sodipodi:linespacing="191.00002%"><tspan
         sodipodi:role="line"
         x="163.65205"
         y="575.37372"
         id="tspan3313-05"
         style="font-size:22px;font-style:normal;font-variant:normal;font-weight:normal;font-stretch:normal;font-family:Droid Sans Mono;-inkscape-font-specification:Droid Sans Mono">REFL</tspan></text>
    <text
       xml:space="preserve"
       style="font-size:40px;font-style:normal;font-weight:normal;line-height:191.0000205%;letter-spacing:0px;word-spacing:0px;fill:#000000;fill-opacity:1;stroke:none;font-family:Sans"
       x="131.32718"
       y="500.62244"
       id="text3309-82"
       sodipodi:linespacing="191.00002%"><tspan
         sodipodi:role="line"
         x="131.32718"
         y="500.62244"
         id="tspan3313-93"
         style="font-size:22px;font-style:normal;font-variant:normal;font-weight:normal;font-stretch:normal;font-family:Droid Sans Mono;-inkscape-font-specification:Droid Sans Mono">T7</tspan></text>
    <text
       xml:space="preserve"
       style="font-size:40px;font-style:normal;font-weight:normal;line-height:191.0000205%;letter-spacing:0px;word-spacing:0px;fill:#000000;fill-opacity:1;stroke:none;font-family:Sans"
       x="217.19014"
       y="458.19604"
       id="text3309-17"
       sodipodi:linespacing="191.00002%"><tspan
         sodipodi:role="line"
         x="217.19014"
         y="458.19604"
         id="tspan3313-2"
         style="font-size:22px;font-style:normal;font-variant:normal;font-weight:normal;font-stretch:normal;font-family:Droid Sans Mono;-inkscape-font-specification:Droid Sans Mono">FC5</tspan></text>
    <text
       xml:space="preserve"
       style="font-size:40px;font-style:normal;font-weight:normal;line-height:191.0000205%;letter-spacing:0px;word-spacing:0px;fill:#000000;fill-opacity:1;stroke:none;font-family:Sans"
       x="197.99725"
       y="334.95743"
       id="text3309-825"
       sodipodi:linespacing="191.00002%"><tspan
         sodipodi:role="line"
         x="197.99725"
         y="334.95743"
         id="tspan3313-88"
         style="font-size:22px;font-style:normal;font-variant:normal;font-weight:normal;font-stretch:normal;font-family:Droid Sans Mono;-inkscape-font-specification:Droid Sans Mono">F7</tspan></text>
  </g>
</svg>
